<svg data-v-fde0c5aa="" xmlns="http://www.w3.org/2000/svg" viewBox="0 0 300 300" class="iconLeftSlogan"><!----><defs data-v-fde0c5aa=""><linearGradient data-v-fde0c5aa="" gradientTransform="rotate(25)" id="36ad05fb-adb0-41bb-be20-72a1c218893c" x1="0%" y1="0%" x2="100%" y2="0%"><stop data-v-fde0c5aa="" offset="0%" stop-color="#0978A6" stop-opacity="1"></stop><stop data-v-fde0c5aa="" offset="100%" stop-color="#FB9447" stop-opacity="1"></stop></linearGradient></defs><rect data-v-fde0c5aa="" fill="url(#36ad05fb-adb0-41bb-be20-72a1c218893c)" x="0" y="0" width="300px" height="300px" class="logo-background-square"></rect><defs data-v-fde0c5aa=""><!----></defs><g data-v-fde0c5aa="" id="1fc2b5e4-5423-4a7b-bea0-885341483563" fill="#ffffff" transform="matrix(2.485070578636117,0,0,2.485070578636117,181.24811173960708,123.82218996429137)"><path d="M6.55 7.54L6.55 7.82L11.66 7.82C11.55 10.57 9.31 12.74 6.55 12.74C3.73 12.74 1.44 10.46 1.44 7.63C1.44 4.79 3.73 2.52 6.55 2.52C8.44 2.52 10.08 3.54 10.96 5.04L11.20 4.90C10.27 3.31 8.54 2.24 6.55 2.24C3.57 2.24 1.16 4.65 1.16 7.63C1.16 10.61 3.57 13.02 6.55 13.02C9.54 13.02 11.94 10.61 11.94 7.63L11.94 7.54ZM22.23 12.74C21.68 12.74 21.37 12.36 21.37 11.64L21.37 5.88L21.09 5.88L21.09 8.03C20.55 6.69 19.25 5.74 17.73 5.74C15.73 5.74 14.09 7.39 14.09 9.38C14.09 11.38 15.73 13.02 17.73 13.02C19.25 13.02 20.55 12.15 21.09 10.80L21.09 11.64C21.09 12.53 21.49 13.02 22.23 13.02C22.40 13.02 22.59 12.97 22.75 12.88L22.75 12.74ZM17.73 12.74C15.87 12.74 14.37 11.24 14.37 9.38C14.37 7.53 15.87 6.02 17.73 6.02C19.58 6.02 21.09 7.53 21.09 9.38C21.09 11.24 19.58 12.74 17.73 12.74ZM28.05 5.74C26.55 5.74 25.25 6.67 24.69 8.00L24.69 0L24.41 0L24.41 12.88L24.69 12.88L24.69 10.76C25.25 12.09 26.55 13.02 28.05 13.02C30.05 13.02 31.69 11.38 31.69 9.38C31.69 7.39 30.05 5.74 28.05 5.74ZM28.05 12.74C26.20 12.74 24.69 11.24 24.69 9.38C24.69 7.53 26.20 6.02 28.05 6.02C29.91 6.02 31.41 7.53 31.41 9.38C31.41 11.24 29.91 12.74 28.05 12.74Z"></path></g><defs data-v-fde0c5aa=""><!----></defs><g data-v-fde0c5aa="" id="20dafe75-7d95-4bad-b4ac-d080096d91c0" stroke="#ffffff" fill="none" transform="matrix(0.4490780600269753,0,0,0.4490780600269753,126.22298752517926,135.85404110915027)"><path d="M-192 0H-7v99h-185zM0-36h100v30H0z"></path><text transform="translate(66 -19.5)" font-family="'Helvetica'" font-size="2.4">http://thenounproject.com</text><text transform="translate(7.166 -24.5)" font-family="'Helvetica-Bold'" font-size="6.158">The Noun Project</text><text transform="translate(8.286 -19.7)" font-family="'Helvetica-Bold'" font-size="4">Icon Template</text><text transform="translate(-178.5 10.5)" font-family="'Helvetica-Bold'" font-size="6.158">Reminders</text><path stroke-miterlimit="10" d="M8-14.5h10M-179 16.5h17"></path><path d="M-170.802 31.318h8.721v8.642h-8.721z"></path><path d="M-164.455 42.312h4.747v-4.703h-4.747v4.703zm5.189.437h-5.63V37.17h5.63v5.579zm-6.955 1.313h8.279v-8.203h-8.279v8.203zm8.721.438h-9.163v-9.079h9.163V44.5z"></path><path d="M-166.149 44.133l-.143-.142 8.279-8.204.142.142z"></path><path d="M-179 58h35v32.5h-35z"></path><text transform="translate(-179 60.157)" font-family="'Helvetica-Bold'" font-size="3">Strokes</text><text transform="translate(-179 65.157)" font-family="'Helvetica'" font-size="2.4">Try to keep strokes at 4px</text><text transform="translate(-179 70.157)" font-family="'Helvetica'" font-size="2.4">Minimum stroke weight is 2px</text><text transform="translate(-179 74.657)" font-family="'Helvetica'" font-size="2.4">For thicker strokes use even</text><text transform="translate(-179 77.657)" font-family="'Helvetica'" font-size="2.4">numbers: 6px, 8px etc.</text><text transform="translate(-179 82.157)" font-family="'Helvetica-Bold'" font-size="2.4">Remember to expand strokes</text><text transform="translate(-179 85.157)" font-family="'Helvetica-Bold'" font-size="2.4">before saving as an SVG</text><path d="M-136.5 58h35v32.5h-35z"></path><text transform="translate(-136.5 60.157)" font-family="'Helvetica-Bold'" font-size="3">Size</text><text transform="translate(-136.5 65.157)" font-family="'Helvetica'" font-size="2.4">Cannot be wider or taller than</text><text transform="translate(-136.5 68.657)" font-family="'Helvetica'" font-size="2.4">100px (artboard size)</text><text transform="translate(-136.5 73.657)" font-family="'Helvetica'" font-size="2.4">Scale your icon to fill as much of</text><text transform="translate(-136.5 76.657)" font-family="'Helvetica'" font-size="2.4">the artboard as possible</text><path d="M-94 58h35v32.5h-35z"></path><text transform="translate(-94 60.157)" font-family="'Helvetica-Bold'" font-size="3">Ungroup</text><text transform="translate(-94 65.157)" font-family="'Helvetica'" font-size="2.4">If your design has more than one</text><text transform="translate(-94 68.157)" font-family="'Helvetica'" font-size="2.4">shape, make sure to ungroup</text><path d="M-50 58h35v32.5h-35z"></path><text transform="translate(-50 60.157)" font-family="'Helvetica-Bold'" font-size="3">Save as</text><text transform="translate(-50 65.157)" font-family="'Helvetica'" font-size="2.4">Save as .SVG and make sure</text><text transform="translate(-50 68.157)" font-family="'Helvetica'" font-size="2.4">“Use Artboards” is checked</text><text transform="matrix(1.0074 0 0 1 -125.542 30.594)" font-family="'Helvetica'" font-size="2.573">100px</text><text transform="matrix(1.0074 0 0 1 -41 39)" font-family="'Helvetica-Bold'" font-size="5.146">.SVG</text><path d="M-126.514 34.815h10.261V45h-10.261zM-126.477 31.766h.522v2.337h-.522zM-116.812 31.766h.523v2.337h-.523z"></path><path d="M-127 32.337h11.233v.572H-127zM-83.805 33.844H-73.5V44h-10.305zM-76.809 28.707h3.308v3.261h-3.308z"></path><path stroke="#FFF" stroke-miterlimit="10" d="M-178.5 22.5h30v30h-30zM-136.5 22.5h30v30h-30zM-93.5 22.5h30v30h-30zM-49.5 22.5h30v30h-30z"></path><path d="M65.421 81.116H34.56c-5.742 0-8.191-2.455-8.191-8.209V26.543c-.006-.333 0-3.659 2.156-5.855 1.16-1.181 2.725-1.805 4.518-1.805H56.58a2.25 2.25 0 0 1 1.529.596v.004l.006.001v.003c0 .002.006.009.006.003a2.434 2.434 0 0 1 .094.092v.003c0 .001.006.003.006.006l14.801 15.732c.615.653.785 1.61.428 2.433a2.255 2.255 0 0 1-2.068 1.358H56.579a2.25 2.25 0 0 1-2.25-2.25v-13.48H33.042c-.762 0-1.096.246-1.307.46-.738.75-.873 2.314-.867 2.66v46.403c0 3.226.48 3.709 3.691 3.709H65.42c3.047 0 3.703-.659 3.703-3.709V44.858a2.25 2.25 0 0 1 4.5 0v28.049c.001 5.523-2.683 8.209-8.202 8.209zm-6.592-46.5h7.348l-7.348-7.808v7.808z"></path><path d="M58.401 66.11a2.25 2.25 0 0 1-1.588-3.841l3.328-3.334-3.328-3.334a2.25 2.25 0 1 1 3.182-3.182l4.922 4.925a2.25 2.25 0 0 1 0 3.182l-4.922 4.925a2.24 2.24 0 0 1-1.594.659zM42.065 66.116c-.574 0-1.154-.22-1.594-.659l-4.922-4.934a2.251 2.251 0 0 1 .006-3.179l4.922-4.919a2.25 2.25 0 1 1 3.182 3.182l-3.334 3.328 3.334 3.34a2.25 2.25 0 0 1-1.594 3.841zM47.374 71.483a2.243 2.243 0 0 1-2.179-2.815l5.73-21.986a2.25 2.25 0 0 1 2.742-1.61 2.253 2.253 0 0 1 1.611 2.744l-5.73 21.983a2.252 2.252 0 0 1-2.174 1.684z"></path></g><defs data-v-fde0c5aa=""><!----></defs><g data-v-fde0c5aa="" id="ded9e7d1-f6f5-45fa-8faa-a351a751f14a" fill="#ffffff" transform="matrix(0.2951696311687088,0,0,0.2951696311687088,184.3492947449119,166.02104216196102)"><path d="M5.38 1.59L5.38 1.59Q4.28 1.45 2.60 1.75L2.60 1.75L2.60 1.75Q2.60 1.74 2.61 1.70L2.61 1.70L2.61 1.70Q2.63 1.66 2.63 1.64L2.63 1.64L2.63 1.64Q2.69 1.39 2.04 1.50L2.04 1.50L2.04 1.50Q1.74 1.56 1.49 1.67L1.49 1.67L1.49 1.67Q1.22 1.80 1.19 1.90L1.19 1.90L1.19 1.90Q1.20 1.88 1.14 2.08L1.14 2.08L1.14 2.08Q0.95 2.18 0.89 2.30L0.89 2.30L0.89 2.30Q0.82 2.43 1.04 2.45L1.04 2.45L1.04 2.45Q-0.23 7.25-0.74 10.98L-0.74 10.98L-0.74 10.98Q-0.75 11.10-0.37 11.07L-0.37 11.07L-0.37 11.07Q-0.12 11.05 0.05 11.00L0.05 11.00L0.05 11.00Q0.69 10.83 0.72 10.59L0.72 10.59L0.72 10.59Q0.94 8.95 1.31 7.16L1.31 7.16L1.31 7.16Q1.24 7.17 2.30 7.09L2.30 7.09L2.30 7.09Q2.94 7.05 3.27 6.75L3.27 6.75L3.27 6.75Q3.43 6.60 3.24 6.54L3.24 6.54L3.24 6.54Q3.11 6.50 2.93 6.51L2.93 6.51L2.93 6.51Q1.80 6.60 1.41 6.66L1.41 6.66L1.41 6.66Q1.83 4.65 2.47 2.24L2.47 2.24L2.47 2.24Q3.49 2.06 4.18 2.15L4.18 2.15L4.18 2.15Q4.66 2.21 5.20 1.96L5.20 1.96L5.20 1.96Q5.34 1.89 5.45 1.78L5.45 1.78L5.45 1.78Q5.60 1.62 5.38 1.59L5.38 1.59ZM15.16 2.21L15.16 2.21Q14.53 2.38 14.49 2.63L14.49 2.63L14.49 2.63Q14.44 3.01 14.28 4.51L14.28 4.51L14.28 4.51Q14.16 5.69 14.02 6.41L14.02 6.41L14.02 6.41Q13.62 8.57 12.52 9.83L12.52 9.83L12.52 9.83Q12.37 10.00 12.26 10.12L12.26 10.12L12.26 10.12Q12.00 9.61 11.96 8.40L11.96 8.40L11.96 8.40Q11.90 6.90 12.82 4.58L12.82 4.58L12.82 4.58Q13.51 2.88 13.67 2.40L13.67 2.40L13.67 2.40Q13.76 2.15 13.09 2.26L13.09 2.26L13.09 2.26Q12.32 2.41 12.23 2.66L12.23 2.66L12.23 2.66Q12.07 3.12 11.51 4.53L11.51 4.53L11.51 4.53Q11.05 5.71 10.83 6.43L10.83 6.43L10.83 6.43Q10.17 8.66 10.74 10.36L10.74 10.36L10.74 10.36Q10.84 10.68 11.04 10.83L11.04 10.83L11.04 10.83Q11.27 11.03 11.92 10.92L11.92 10.92L11.92 10.92Q12.93 10.73 13.84 9.71L13.84 9.71L13.84 9.71Q15.00 8.41 15.44 6.34L15.44 6.34L15.44 6.34Q15.59 5.55 15.73 4.29L15.73 4.29L15.73 4.29Q15.91 2.58 15.96 2.24L15.96 2.24L15.96 2.24Q15.97 2.11 15.59 2.14L15.59 2.14L15.59 2.14Q15.33 2.16 15.16 2.21L15.16 2.21ZM24.90 11.33L24.90 11.33Q23.86 11.36 23.41 11.16L23.41 11.16L23.41 11.16Q24.27 6.57 25.38 2.08L25.38 2.08L25.38 2.08Q25.45 1.83 24.80 1.95L24.80 1.95L24.80 1.95Q24.50 2.00 24.25 2.12L24.25 2.12L24.25 2.12Q23.97 2.25 23.95 2.34L23.95 2.34L23.95 2.34Q22.83 6.83 21.96 11.47L21.96 11.47L21.96 11.47Q21.88 11.56 21.94 11.61L21.94 11.61L21.94 11.61Q21.94 11.63 21.94 11.70L21.94 11.70L21.94 11.70Q21.93 11.74 21.92 11.78L21.92 11.78L21.92 11.78Q21.90 11.94 22.54 11.83L22.54 11.83L22.54 11.83Q23.04 11.95 23.95 11.92L23.95 11.92L23.95 11.92Q24.55 11.91 24.98 11.65L24.98 11.65L24.98 11.65Q25.16 11.54 25.14 11.44L25.14 11.44L25.14 11.44Q25.11 11.33 24.90 11.33L24.90 11.33ZM34.83 11.33L34.83 11.33Q33.79 11.36 33.35 11.16L33.35 11.16L33.35 11.16Q34.20 6.57 35.31 2.08L35.31 2.08L35.31 2.08Q35.38 1.83 34.73 1.95L34.73 1.95L34.73 1.95Q34.43 2.00 34.18 2.12L34.18 2.12L34.18 2.12Q33.90 2.25 33.88 2.34L33.88 2.34L33.88 2.34Q32.76 6.83 31.90 11.47L31.90 11.47L31.90 11.47Q31.81 11.56 31.88 11.61L31.88 11.61L31.88 11.61Q31.88 11.63 31.87 11.70L31.87 11.70L31.87 11.70Q31.86 11.74 31.86 11.78L31.86 11.78L31.86 11.78Q31.83 11.94 32.48 11.83L32.48 11.83L32.48 11.83Q32.97 11.95 33.88 11.92L33.88 11.92L33.88 11.92Q34.49 11.91 34.91 11.65L34.91 11.65L34.91 11.65Q35.09 11.54 35.07 11.44L35.07 11.44L35.07 11.44Q35.04 11.33 34.83 11.33L34.83 11.33ZM47.44 5.50L47.44 5.50Q47.89 4.74 48.10 3.53L48.10 3.53L48.10 3.53Q48.34 2.15 47.84 1.57L47.84 1.57L47.84 1.57Q47.55 1.22 46.80 1.27L46.80 1.27L46.80 1.27Q45.86 1.33 44.97 1.85L44.97 1.85L44.97 1.85Q43.72 2.59 43.11 4.34L43.11 4.34L43.11 4.34Q42.49 6.10 43.11 7.18L43.11 7.18L43.11 7.18Q43.40 7.68 44.78 8.17L44.78 8.17L44.78 8.17Q45.34 8.37 45.55 8.48L45.55 8.48L45.55 8.48Q45.99 8.74 46.07 9.11L46.07 9.11L46.07 9.11Q46.17 9.50 45.83 10.17L45.83 10.17L45.83 10.17Q45.65 10.51 45.37 10.76L45.37 10.76L45.37 10.76Q45.25 10.87 45.10 10.97L45.10 10.97L45.10 10.97Q45.02 11.02 45.00 11.03L45.00 11.03L45.00 11.03Q44.94 11.07 44.88 11.09L44.88 11.09L44.88 11.09Q44.97 11.05 44.85 11.10L44.85 11.10L44.85 11.10Q44.86 11.10 44.92 11.09L44.92 11.09L44.92 11.09Q44.88 11.09 44.83 11.09L44.83 11.09L44.83 11.09Q44.82 11.10 44.73 11.09L44.73 11.09L44.73 11.09Q44.68 11.09 44.53 11.05L44.53 11.05L44.53 11.05Q44.17 10.97 43.87 10.64L43.87 10.64L43.87 10.64Q43.65 10.39 43.57 9.93L43.57 9.93L43.57 9.93Q43.46 9.44 43.69 9.28L43.69 9.28L43.69 9.28Q43.89 9.13 43.87 9.06L43.87 9.06L43.87 9.06Q43.84 8.97 43.61 8.96L43.61 8.96L43.61 8.96Q42.98 8.95 42.57 9.24L42.57 9.24L42.57 9.24Q42.18 9.53 42.11 9.86L42.11 9.86L42.11 9.86Q42.03 10.20 42.18 10.62L42.18 10.62L42.18 10.62Q42.46 11.36 43.33 11.61L43.33 11.61L43.33 11.61Q44.21 11.87 45.49 11.37L45.49 11.37L45.49 11.37Q46.50 10.96 47.07 10.24L47.07 10.24L47.07 10.24Q47.44 9.76 47.53 9.24L47.53 9.24L47.53 9.24Q47.63 8.62 47.25 8.23L47.25 8.23L47.25 8.23Q46.98 7.96 46.42 7.75L46.42 7.75L46.42 7.75Q46.27 7.70 45.96 7.59L45.96 7.59L45.96 7.59Q45.66 7.50 45.53 7.44L45.53 7.44L45.53 7.44Q45.00 7.23 44.72 6.97L44.72 6.97L44.72 6.97Q44.42 6.69 44.32 5.96L44.32 5.96L44.32 5.96Q44.12 4.53 45.07 2.97L45.07 2.97L45.07 2.97Q45.49 2.29 45.99 1.95L45.99 1.95L45.99 1.95Q46.04 1.91 46.14 1.86L46.14 1.86L46.14 1.86Q46.13 1.86 46.18 1.84L46.18 1.84L46.18 1.84Q46.17 1.84 46.21 1.83L46.21 1.83L46.21 1.83Q46.18 1.84 46.22 1.83L46.22 1.83L46.22 1.83Q46.15 1.85 46.07 1.85L46.07 1.85L46.07 1.85Q46.09 1.85 46.08 1.85L46.08 1.85L46.10 1.85L46.10 1.85Q46.16 1.86 46.24 1.89L46.24 1.89L46.24 1.89Q46.25 1.89 46.35 1.96L46.35 1.96L46.35 1.96Q46.42 2.01 46.46 2.06L46.46 2.06L46.46 2.06Q46.57 2.20 46.64 2.45L46.64 2.45L46.64 2.45Q46.76 2.84 46.70 3.49L46.70 3.49L46.70 3.49Q46.57 4.81 46.00 5.76L46.00 5.76L46.00 5.76Q45.91 5.90 46.22 5.91L46.22 5.91L46.22 5.91Q46.42 5.92 46.58 5.89L46.58 5.89L46.58 5.89Q47.28 5.76 47.44 5.50L47.44 5.50ZM59.53 2.35L59.53 2.35Q58.58 2.17 57.57 2.15L57.57 2.15L57.57 2.15Q57.48 2.03 57.00 2.11L57.00 2.11L57.00 2.11Q56.90 2.13 56.79 2.16L56.79 2.16L56.79 2.16Q55.72 2.22 54.68 2.46L54.68 2.46L54.68 2.46Q53.94 2.63 54.01 2.88L54.01 2.88L54.01 2.88Q54.06 3.08 54.78 2.91L54.78 2.91L54.78 2.91Q54.79 2.91 54.80 2.90L54.80 2.90L54.80 2.90Q54.82 2.90 54.83 2.89L54.83 2.89L54.83 2.89Q54.91 2.88 55.06 2.85L55.06 2.85L55.06 2.85Q55.23 2.82 55.45 2.80L55.45 2.80L55.45 2.80Q55.74 2.76 56.07 2.75L56.07 2.75L56.07 2.75Q54.65 7.40 54.26 10.96L54.26 10.96L54.26 10.96Q54.25 11.02 54.48 11.03L54.48 11.03L54.48 11.03Q54.69 11.04 54.97 10.99L54.97 10.99L54.97 10.99Q55.69 10.86 55.72 10.56L55.72 10.56L55.72 10.56Q56.10 7.19 57.42 2.78L57.42 2.78L57.42 2.78Q57.89 2.82 58.32 2.91L58.32 2.91L58.32 2.91Q58.76 2.99 59.35 2.72L59.35 2.72L59.35 2.72Q59.51 2.65 59.60 2.54L59.60 2.54L59.60 2.54Q59.75 2.39 59.53 2.35L59.53 2.35ZM68.11 7.89L68.11 7.89Q68.00 7.90 67.10 7.84L67.10 7.84L67.10 7.84Q67.51 6.63 67.97 5.57L67.97 5.57L67.97 5.57Q68.13 5.18 68.68 3.95L68.68 3.95L68.68 3.95Q68.66 4.61 68.48 7.85L68.48 7.85L68.48 7.85Q68.30 7.87 68.11 7.89L68.11 7.89ZM69.92 1.18L69.92 1.18Q69.73 1.09 69.35 1.16L69.35 1.16L69.35 1.16Q68.71 1.27 68.50 1.55L68.50 1.55L68.50 1.55Q68.30 1.80 67.52 3.58L67.52 3.58L67.52 3.58Q67.38 3.90 67.02 4.70L67.02 4.70L67.02 4.70Q66.71 5.42 66.53 5.83L66.53 5.83L66.53 5.83Q66.11 6.79 65.73 7.86L65.73 7.86L65.73 7.86Q64.81 7.97 64.16 8.37L64.16 8.37L64.16 8.37Q63.98 8.48 64.01 8.58L64.01 8.58L64.01 8.58Q64.04 8.67 64.24 8.68L64.24 8.68L64.24 8.68Q64.76 8.70 65.24 8.43L65.24 8.43L65.24 8.43Q65.38 8.41 65.43 8.41L65.43 8.41L65.43 8.41Q65.49 8.41 65.55 8.41L65.55 8.41L65.55 8.41Q65.23 9.39 64.91 10.53L64.91 10.53L64.91 10.53Q64.84 10.79 65.50 10.67L65.50 10.67L65.50 10.67Q65.80 10.62 66.05 10.49L66.05 10.49L66.05 10.49Q66.32 10.37 66.35 10.27L66.35 10.27L66.35 10.27Q66.62 9.32 66.89 8.48L66.89 8.48L66.89 8.48Q67.18 8.50 67.38 8.47L67.38 8.47L67.38 8.47Q68.09 8.39 68.44 8.46L68.44 8.46L68.44 8.46Q68.33 10.55 68.33 12.02L68.33 12.02L68.33 12.02Q68.33 12.10 68.56 12.11L68.56 12.11L68.56 12.11Q68.78 12.12 69.06 12.06L69.06 12.06L69.06 12.06Q69.79 11.91 69.79 11.62L69.79 11.62L69.79 11.62Q69.79 9.90 70 6.45L70 6.45L70 6.45Q70.20 3.00 70.20 1.27L70.20 1.27L70.20 1.27Q70.20 1.18 69.92 1.18L69.92 1.18ZM82.77 1.54L82.77 1.54Q82.34 0.91 81.16 1.20L81.16 1.20L81.16 1.20Q80.20 1.43 79.56 2.14L79.56 2.14L79.56 2.14Q78.54 3.26 78.11 5.40L78.11 5.40L78.11 5.40Q77.82 6.86 77.72 8.67L77.72 8.67L77.72 8.67Q77.71 9.98 77.85 10.47L77.85 10.47L77.85 10.47Q78.12 11.44 79.21 11.50L79.21 11.50L79.21 11.50Q79.83 11.53 80.42 11.27L80.42 11.27L80.42 11.27Q81.01 10.99 81.38 10.51L81.38 10.51L81.38 10.51Q81.76 10.02 82.09 8.89L82.09 8.89L82.09 8.89Q82.17 8.64 81.51 8.76L81.51 8.76L81.51 8.76Q81.21 8.81 80.96 8.93L80.96 8.93L80.96 8.93Q80.68 9.06 80.66 9.15L80.66 9.15L80.66 9.15Q80.41 9.99 80.14 10.48L80.14 10.48L80.14 10.48Q80.02 10.68 79.89 10.83L79.89 10.83L79.89 10.83Q79.32 10.58 79.20 9.66L79.20 9.66L79.20 9.66Q79.17 9.42 79.19 8.20L79.19 8.20L79.19 8.20Q79.28 6.41 79.60 4.92L79.60 4.92L79.60 4.92Q80.06 2.75 81.09 1.80L81.09 1.80L81.09 1.80Q81.11 1.79 81.14 1.76L81.14 1.76L81.14 1.76Q81.50 2.01 81.59 2.75L81.59 2.75L81.59 2.75Q81.67 3.36 81.46 4.29L81.46 4.29L81.46 4.29Q81.12 5.76 81.12 5.80L81.12 5.80L81.12 5.80Q81.09 5.92 81.48 5.89L81.48 5.89L81.48 5.89Q81.74 5.87 81.90 5.82L81.90 5.82L81.90 5.82Q82.54 5.65 82.58 5.41L82.58 5.41L82.58 5.41Q82.63 5.07 82.78 4.41L82.78 4.41L82.78 4.41Q82.95 3.74 83.00 3.40L83.00 3.40L83.00 3.40Q83.19 2.17 82.77 1.54L82.77 1.54ZM95.46 1.54L95.46 1.54Q95.16 1.59 94.90 1.71L94.90 1.71L94.90 1.71Q94.62 1.85 94.60 1.93L94.60 1.93L94.60 1.93Q94.35 3.23 93.11 4.91L93.11 4.91L93.11 4.91Q92.44 5.82 91.44 6.87L91.44 6.87L91.44 6.87Q91.54 6.31 91.58 6.09L91.58 6.09L91.58 6.09Q92.10 3.42 92.92 2.26L92.92 2.26L92.92 2.26Q93.02 2.12 92.70 2.11L92.70 2.11L92.70 2.11Q92.49 2.09 92.34 2.12L92.34 2.12L92.34 2.12Q91.68 2.24 91.48 2.52L91.48 2.52L91.48 2.52Q90.66 3.68 90.13 6.43L90.13 6.43L90.13 6.43Q89.74 8.43 89.73 8.47L89.73 8.47L89.73 8.47Q89.25 10.61 89.24 10.85L89.24 10.85L89.24 10.85Q89.23 10.92 89.46 10.93L89.46 10.93L89.46 10.93Q89.67 10.94 89.95 10.88L89.95 10.88L89.95 10.88Q90.68 10.75 90.70 10.45L90.70 10.45L90.70 10.45Q90.72 10.17 91.16 8.22L91.16 8.22L91.16 8.22Q91.49 8.85 91.76 9.69L91.76 9.69L91.76 9.69Q92.16 10.97 92.15 12.02L92.15 12.02L92.15 12.02Q92.15 12.11 92.38 12.11L92.38 12.11L92.38 12.11Q92.59 12.13 92.88 12.07L92.88 12.07L92.88 12.07Q93.61 11.92 93.61 11.63L93.61 11.63L93.61 11.63Q93.63 10.62 93.22 9.30L93.22 9.30L93.22 9.30Q92.84 8.07 92.27 7.25L92.27 7.25L92.27 7.25Q93.60 5.91 94.50 4.72L94.50 4.72L94.50 4.72Q95.78 3.01 96.04 1.67L96.04 1.67L96.04 1.67Q96.09 1.42 95.46 1.54L95.46 1.54ZM116.96 10.27L116.96 10.27Q116.96 10.27 116.95 10.28L116.95 10.28L116.95 10.28Q116.96 10.27 116.96 10.27L116.96 10.27L116.96 10.27L116.96 10.27ZM120.79 0.67L120.79 0.67Q120.72 0.42 119.99 0.62L119.99 0.62L119.99 0.62Q119.26 0.82 119.33 1.06L119.33 1.06L119.33 1.06Q119.53 1.79 119.56 2.47L119.56 2.47L119.56 2.47Q119.58 2.95 119.44 4.01L119.44 4.01L119.44 4.01Q119.23 5.59 118.88 6.73L118.88 6.73L118.88 6.73Q118.59 7.65 117.98 8.81L117.98 8.81L117.98 8.81Q118.00 8.78 117.94 8.90L117.94 8.90L117.94 8.90Q117.86 7.21 117.86 1.98L117.86 1.98L117.86 1.98Q117.86 1.89 117.64 1.88L117.64 1.88L117.64 1.88Q117.43 1.87 117.15 1.94L117.15 1.94L117.15 1.94Q116.44 2.10 116.40 2.37L116.40 2.37L116.40 2.37Q116.03 4.98 115.42 6.81L115.42 6.81L115.42 6.81Q114.93 8.30 114.24 9.37L114.24 9.37L114.24 9.37Q113.98 8.18 114.09 5.77L114.09 5.77L114.09 5.77Q114.10 5.55 114.15 3.78L114.15 3.78L114.15 3.78Q114.17 2.54 114.57 1.94L114.57 1.94L114.57 1.94Q114.66 1.80 114.35 1.79L114.35 1.79L114.35 1.79Q114.14 1.78 113.98 1.81L113.98 1.81L113.98 1.81Q113.31 1.93 113.13 2.21L113.13 2.21L113.13 2.21Q112.75 2.78 112.69 3.94L112.69 3.94L112.69 3.94Q112.67 4.30 112.66 4.96L112.66 4.96L112.66 4.96Q112.65 5.65 112.64 5.97L112.64 5.97L112.64 5.97Q112.48 9.35 113.11 10.80L113.11 10.80L113.11 10.80Q113.19 10.96 113.71 10.87L113.71 10.87L113.71 10.87Q114.28 10.77 114.51 10.55L114.51 10.55L114.51 10.55Q115.66 9.43 116.42 7.75L116.42 7.75L116.42 7.75Q116.46 9.30 116.55 10.60L116.55 10.60L116.55 10.60Q116.56 10.77 117.01 10.69L117.01 10.69L117.01 10.69Q117.30 10.64 117.53 10.57L117.53 10.57L117.53 10.57Q118.46 10.25 119.20 8.96L119.20 8.96L119.20 8.96Q119.83 7.89 120.21 6.79L120.21 6.79L120.21 6.79Q120.62 5.63 120.87 3.89L120.87 3.89L120.87 3.89Q121.03 2.77 121.02 2.25L121.02 2.25L121.02 2.25Q121.02 1.53 120.79 0.67L120.79 0.67ZM131.82 1.42L131.82 1.42Q131.11 1.19 129.93 1.57L129.93 1.57L129.93 1.57Q128.42 2.06 127.86 3.77L127.86 3.77L127.86 3.77Q127.51 4.83 127.69 6.11L127.69 6.11L127.69 6.11Q127.78 6.76 128.04 7.16L128.04 7.16L128.04 7.16Q127.63 7.38 127.33 7.70L127.33 7.70L127.33 7.70Q126.33 8.80 126.44 10.01L126.44 10.01L126.44 10.01Q126.51 10.70 126.99 11.11L126.99 11.11L126.99 11.11Q127.39 11.44 128.21 11.42L128.21 11.42L128.21 11.42Q129.05 11.39 129.75 10.95L129.75 10.95L129.75 10.95Q130.50 10.49 130.81 9.76L130.81 9.76L130.81 9.76Q130.87 9.61 130.59 9.60L130.59 9.60L130.59 9.60Q130.42 9.59 130.22 9.63L130.22 9.63L130.22 9.63Q129.47 9.76 129.37 10.02L129.37 10.02L129.37 10.02Q129.17 10.51 128.82 10.80L128.82 10.80L128.82 10.80Q128.81 10.81 128.80 10.82L128.80 10.82L128.80 10.82Q128.75 10.81 128.74 10.81L128.74 10.81L128.74 10.81Q128.67 10.79 128.59 10.75L128.59 10.75L128.59 10.75Q128.43 10.68 128.27 10.52L128.27 10.52L128.27 10.52Q127.98 10.23 127.91 9.63L127.91 9.63L127.91 9.63Q127.81 8.83 128.44 7.86L128.44 7.86L128.44 7.86Q128.52 7.74 128.63 7.62L128.63 7.62L128.63 7.62Q128.84 7.70 129.11 7.72L129.11 7.72L129.11 7.72Q129.51 7.74 130.01 7.51L130.01 7.51L130.01 7.51Q130.42 7.32 130.27 7.18L130.27 7.18L130.27 7.18Q129.99 6.90 129.56 6.84L129.56 6.84L129.56 6.84Q129.52 6.79 129.49 6.75L129.49 6.75L129.49 6.75Q129.28 6.45 129.17 5.89L129.17 5.89L129.17 5.89Q128.98 4.89 129.17 4.00L129.17 4.00L129.17 4.00Q129.43 2.70 130.20 2.04L130.20 2.04L130.20 2.04Q130.25 2.00 130.35 1.93L130.35 1.93L130.35 1.93Q130.35 1.93 130.35 1.93L130.35 1.93L130.35 1.93Q130.48 1.94 130.46 1.93L130.46 1.93L130.46 1.93Q131.04 2.02 130.93 2.62L130.93 2.62L130.93 2.62Q130.88 2.86 131.51 2.75L131.51 2.75L131.51 2.75Q131.82 2.69 132.07 2.58L132.07 2.58L132.07 2.58Q132.35 2.45 132.37 2.36L132.37 2.36L132.37 2.36Q132.51 1.63 131.82 1.42L131.82 1.42ZM141.26 9.37L141.26 9.37Q141.16 9.50 140.91 9.70L140.91 9.70L140.91 9.70Q140.87 9.73 140.77 9.80L140.77 9.80L140.77 9.80Q140.71 9.84 140.66 9.87L140.66 9.87L140.66 9.87Q140.55 9.94 140.55 9.93L140.55 9.93L140.55 9.93Q140.46 9.97 140.35 10.03L140.35 10.03L140.35 10.03Q140.33 10.04 140.27 10.06L140.27 10.06L140.27 10.06Q140.26 10.07 140.16 10.11L140.16 10.11L140.16 10.11Q140.14 10.11 140.07 10.14L140.07 10.14L140.07 10.14Q139.99 10.16 139.99 10.17L139.99 10.17L139.99 10.17Q139.90 10.19 139.79 10.21L139.79 10.21L139.79 10.21Q139.77 10.23 139.62 10.25L139.62 10.25L139.62 10.25Q139.62 10.25 139.57 10.26L139.57 10.26L139.57 10.26Q139.60 10.26 139.45 10.27L139.45 10.27L139.45 10.27Q139.38 10.28 139.25 10.29L139.25 10.29L139.25 10.29Q139.28 10.29 139.10 10.29L139.10 10.29L139.10 10.29Q139.18 10.03 139.54 8.24L139.54 8.24L139.54 8.24Q139.86 8.20 140.14 8.05L140.14 8.05L140.14 8.05Q140.26 7.99 140.40 7.93L140.40 7.93L140.40 7.93Q140.41 7.92 140.42 7.92L140.42 7.92L140.42 7.92Q140.42 7.92 140.42 7.92L140.42 7.92L140.42 7.92Q140.51 7.88 140.63 7.84L140.63 7.84L140.63 7.84Q140.64 7.84 140.64 7.83L140.64 7.83L140.65 7.83L140.65 7.83Q140.67 7.83 140.73 7.81L140.73 7.81L140.73 7.81Q140.81 7.79 140.81 7.79L140.81 7.79L140.81 7.79Q140.85 7.79 140.90 7.78L140.90 7.78L140.90 7.78Q140.94 7.77 140.98 7.77L140.98 7.77L140.98 7.77Q140.98 7.77 140.98 7.77L140.98 7.77L140.98 7.77Q141.00 7.77 141.03 7.77L141.03 7.77L141.03 7.77Q141.07 7.77 141.08 7.77L141.08 7.77L141.08 7.77Q141.09 7.77 141.13 7.78L141.13 7.78L141.13 7.78Q141.26 7.81 141.37 7.88L141.37 7.88L141.37 7.88Q141.59 8.03 141.59 8.46L141.59 8.46L141.59 8.46Q141.59 8.93 141.26 9.37L141.26 9.37ZM140.88 6.15L140.88 6.15Q140.39 6.95 139.70 7.54L139.70 7.54L139.70 7.54Q139.84 6.95 140.11 6.02L140.11 6.02L140.11 6.02Q140.84 3.45 141.03 2.44L141.03 2.44L141.03 2.44Q141.54 2.95 141.61 3.83L141.61 3.83L141.61 3.83Q141.68 4.83 140.88 6.15L140.88 6.15ZM141.20 7.25L141.20 7.25Q141.81 6.67 142.28 5.95L142.28 5.95L142.28 5.95Q143.18 4.56 143.06 3.30L143.06 3.30L143.06 3.30Q142.94 2.15 141.93 1.62L141.93 1.62L141.93 1.62Q140.91 1.08 139.31 1.55L139.31 1.55L139.31 1.55Q138.58 1.76 138.63 1.96L138.63 1.96L138.63 1.96Q138.70 2.20 139.43 1.99L139.43 1.99L139.43 1.99Q139.60 1.93 139.56 1.95L139.56 1.95L139.56 1.95Q139.62 1.94 139.62 1.93L139.62 1.93L139.62 1.93Q139.64 1.93 139.65 1.93L139.65 1.93L139.65 1.93Q139.69 1.93 139.72 1.93L139.72 1.93L139.72 1.93Q139.70 1.97 139.69 2.02L139.69 2.02L139.69 2.02Q139.54 3.23 138.67 6.28L138.67 6.28L138.67 6.28Q138.32 7.50 138.13 8.38L138.13 8.38L138.13 8.38Q137.63 10.71 137.64 10.66L137.64 10.66L137.64 10.66Q137.59 10.84 137.94 10.83L137.94 10.83L137.94 10.83Q138.00 10.87 138.13 10.88L138.13 10.88L138.13 10.88Q139.67 10.93 141.30 10.16L141.30 10.16L141.30 10.16Q142.91 9.39 143.05 8.16L143.05 8.16L143.05 8.16Q143.19 6.88 141.20 7.25L141.20 7.25ZM165.03 3.48L165.03 3.48Q164.99 1.70 164.14 1.01L164.14 1.01L164.14 1.01Q163.67 0.64 162.78 0.68L162.78 0.68L162.78 0.68Q161.78 0.72 160.53 1.40L160.53 1.40L160.53 1.40Q160.34 1.50 160.38 1.60L160.38 1.60L160.38 1.60Q160.41 1.70 160.61 1.71L160.61 1.71L160.61 1.71Q161.11 1.72 161.64 1.44L161.64 1.44L161.64 1.44Q161.66 1.43 161.68 1.42L161.68 1.42L161.68 1.42Q161.72 1.39 161.80 1.35L161.80 1.35L161.80 1.35Q161.84 1.34 161.92 1.31L161.92 1.31L161.92 1.31Q161.94 1.29 162.05 1.26L162.05 1.26L162.06 1.26L162.06 1.26Q162.07 1.25 162.07 1.26L162.07 1.26L162.07 1.26Q162.07 1.25 162.09 1.25L162.09 1.25L162.09 1.25Q162.13 1.25 162.17 1.26L162.17 1.26L162.17 1.26Q162.18 1.26 162.20 1.26L162.20 1.26L162.20 1.26Q162.24 1.26 162.24 1.26L162.24 1.26L162.24 1.26Q162.33 1.28 162.43 1.31L162.43 1.31L162.43 1.31Q162.44 1.31 162.44 1.31L162.44 1.31L162.44 1.31Q162.44 1.31 162.44 1.31L162.44 1.31L162.44 1.31Q162.47 1.33 162.52 1.35L162.52 1.35L162.52 1.35Q162.57 1.37 162.65 1.43L162.65 1.43L162.65 1.43Q162.78 1.51 162.91 1.65L162.91 1.65L162.91 1.65Q163.11 1.85 163.27 2.23L163.27 2.23L163.27 2.23Q163.86 3.66 163.33 6.11L163.33 6.11L163.33 6.11Q162.98 7.70 162.27 8.97L162.27 8.97L162.27 8.97Q161.92 9.60 161.51 10.03L161.51 10.03L161.51 10.03Q161.33 10.22 161.12 10.39L161.12 10.39L161.12 10.39Q162.21 5.68 162.67 1.78L162.67 1.78L162.67 1.78Q162.68 1.71 162.46 1.70L162.46 1.70L162.46 1.70Q162.24 1.69 161.97 1.74L161.97 1.74L161.97 1.74Q161.25 1.87 161.21 2.17L161.21 2.17L161.21 2.17Q160.74 6.19 159.56 11.16L159.56 11.16L159.56 11.16Q159.50 11.42 160.15 11.30L160.15 11.30L160.15 11.30Q160.45 11.25 160.70 11.12L160.70 11.12L160.70 11.12Q160.90 11.03 160.96 10.97L160.96 10.97L160.96 10.97Q161.23 10.93 161.61 10.77L161.61 10.77L161.61 10.77Q163.17 10.12 164.16 7.78L164.16 7.78L164.16 7.78Q165.07 5.63 165.03 3.48L165.03 3.48ZM176.26 1.42L176.26 1.42Q175.55 1.19 174.37 1.57L174.37 1.57L174.37 1.57Q172.86 2.06 172.30 3.77L172.30 3.77L172.30 3.77Q171.95 4.83 172.13 6.11L172.13 6.11L172.13 6.11Q172.22 6.76 172.48 7.16L172.48 7.16L172.48 7.16Q172.07 7.38 171.77 7.70L171.77 7.70L171.77 7.70Q170.78 8.80 170.88 10.01L170.88 10.01L170.88 10.01Q170.95 10.70 171.43 11.11L171.43 11.11L171.43 11.11Q171.83 11.44 172.66 11.42L172.66 11.42L172.66 11.42Q173.49 11.39 174.19 10.95L174.19 10.95L174.19 10.95Q174.95 10.49 175.25 9.76L175.25 9.76L175.25 9.76Q175.31 9.61 175.03 9.60L175.03 9.60L175.03 9.60Q174.86 9.59 174.67 9.63L174.67 9.63L174.67 9.63Q173.91 9.76 173.81 10.02L173.81 10.02L173.81 10.02Q173.61 10.51 173.26 10.80L173.26 10.80L173.26 10.80Q173.25 10.81 173.24 10.82L173.24 10.82L173.24 10.82Q173.19 10.81 173.18 10.81L173.18 10.81L173.18 10.81Q173.11 10.79 173.03 10.75L173.03 10.75L173.03 10.75Q172.87 10.68 172.71 10.52L172.71 10.52L172.71 10.52Q172.42 10.23 172.35 9.63L172.35 9.63L172.35 9.63Q172.25 8.83 172.88 7.86L172.88 7.86L172.88 7.86Q172.96 7.74 173.07 7.62L173.07 7.62L173.07 7.62Q173.28 7.70 173.55 7.72L173.55 7.72L173.55 7.72Q173.95 7.74 174.45 7.51L174.45 7.51L174.45 7.51Q174.86 7.32 174.71 7.18L174.71 7.18L174.71 7.18Q174.43 6.90 174.00 6.84L174.00 6.84L174.00 6.84Q173.96 6.79 173.93 6.75L173.93 6.75L173.93 6.75Q173.72 6.45 173.61 5.89L173.61 5.89L173.61 5.89Q173.42 4.89 173.61 4.00L173.61 4.00L173.61 4.00Q173.87 2.70 174.64 2.04L174.64 2.04L174.64 2.04Q174.69 2.00 174.79 1.93L174.79 1.93L174.79 1.93Q174.79 1.93 174.79 1.93L174.79 1.93L174.79 1.93Q174.92 1.94 174.90 1.93L174.90 1.93L174.90 1.93Q175.49 2.02 175.37 2.62L175.37 2.62L175.37 2.62Q175.32 2.86 175.95 2.75L175.95 2.75L175.95 2.75Q176.26 2.69 176.51 2.58L176.51 2.58L176.51 2.58Q176.79 2.45 176.81 2.36L176.81 2.36L176.81 2.36Q176.95 1.63 176.26 1.42L176.26 1.42ZM188.01 2.13L188.01 2.13Q187.96 1.90 187.23 2.08L187.23 2.08L187.23 2.08Q186.49 2.27 186.55 2.52L186.55 2.52L186.55 2.52Q186.65 3.04 186.48 3.73L186.48 3.73L186.48 3.73Q186.42 3.96 186.31 4.33L186.31 4.33L186.31 4.33Q186.17 4.77 186.13 4.92L186.13 4.92L186.13 4.92Q185.76 6.24 185.52 6.97L185.52 6.97L185.52 6.97Q185.18 7.99 184.87 8.65L184.87 8.65L184.87 8.65Q184.90 2.78 184.88 2.18L184.88 2.18L184.88 2.18Q184.88 2.09 184.65 2.08L184.65 2.08L184.65 2.08Q184.43 2.07 184.14 2.13L184.14 2.13L184.14 2.13Q183.41 2.29 183.42 2.58L183.42 2.58L183.42 2.58Q183.47 4.06 183.44 6.67L183.44 6.67L183.44 6.67Q183.39 9.59 183.42 10.75L183.42 10.75L183.42 10.75Q183.42 10.93 184.01 10.82L184.01 10.82L184.01 10.82Q184.56 10.72 184.81 10.50L184.81 10.50L184.81 10.50Q186.05 9.40 186.94 6.77L186.94 6.77L186.94 6.77Q187.17 6.07 187.57 4.65L187.57 4.65L187.57 4.65Q188.12 2.69 188.01 2.13L188.01 2.13ZM199.09 1.42L199.09 1.42Q198.38 1.19 197.20 1.57L197.20 1.57L197.20 1.57Q195.69 2.06 195.13 3.77L195.13 3.77L195.13 3.77Q194.78 4.83 194.95 6.11L194.95 6.11L194.95 6.11Q195.04 6.76 195.31 7.16L195.31 7.16L195.31 7.16Q194.89 7.38 194.60 7.70L194.60 7.70L194.60 7.70Q193.60 8.80 193.71 10.01L193.71 10.01L193.71 10.01Q193.78 10.70 194.26 11.11L194.26 11.11L194.26 11.11Q194.65 11.44 195.48 11.42L195.48 11.42L195.48 11.42Q196.31 11.39 197.02 10.95L197.02 10.95L197.02 10.95Q197.77 10.49 198.07 9.76L198.07 9.76L198.07 9.76Q198.13 9.61 197.85 9.60L197.85 9.60L197.85 9.60Q197.68 9.59 197.49 9.63L197.49 9.63L197.49 9.63Q196.74 9.76 196.64 10.02L196.64 10.02L196.64 10.02Q196.44 10.51 196.09 10.80L196.09 10.80L196.09 10.80Q196.08 10.81 196.06 10.82L196.06 10.82L196.06 10.82Q196.01 10.81 196.01 10.81L196.01 10.81L196.01 10.81Q195.94 10.79 195.86 10.75L195.86 10.75L195.86 10.75Q195.69 10.68 195.54 10.52L195.54 10.52L195.54 10.52Q195.25 10.23 195.17 9.63L195.17 9.63L195.17 9.63Q195.08 8.83 195.71 7.86L195.71 7.86L195.71 7.86Q195.79 7.74 195.89 7.62L195.89 7.62L195.89 7.62Q196.10 7.70 196.38 7.72L196.38 7.72L196.38 7.72Q196.78 7.74 197.27 7.51L197.27 7.51L197.27 7.51Q197.69 7.32 197.54 7.18L197.54 7.18L197.54 7.18Q197.25 6.90 196.83 6.84L196.83 6.84L196.83 6.84Q196.79 6.79 196.75 6.75L196.75 6.75L196.75 6.75Q196.55 6.45 196.44 5.89L196.44 5.89L196.44 5.89Q196.25 4.89 196.43 4.00L196.43 4.00L196.43 4.00Q196.70 2.70 197.46 2.04L197.46 2.04L197.46 2.04Q197.52 2.00 197.61 1.93L197.61 1.93L197.61 1.93Q197.62 1.93 197.62 1.93L197.62 1.93L197.62 1.93Q197.75 1.94 197.73 1.93L197.73 1.93L197.73 1.93Q198.31 2.02 198.19 2.62L198.19 2.62L198.19 2.62Q198.15 2.86 198.78 2.75L198.78 2.75L198.78 2.75Q199.08 2.69 199.34 2.58L199.34 2.58L199.34 2.58Q199.62 2.45 199.64 2.36L199.64 2.36L199.64 2.36Q199.77 1.63 199.09 1.42L199.09 1.42ZM207.85 11.33L207.85 11.33Q206.81 11.36 206.36 11.16L206.36 11.16L206.36 11.16Q207.22 6.57 208.33 2.08L208.33 2.08L208.33 2.08Q208.40 1.83 207.75 1.95L207.75 1.95L207.75 1.95Q207.45 2.00 207.20 2.12L207.20 2.12L207.20 2.12Q206.92 2.25 206.90 2.34L206.90 2.34L206.90 2.34Q205.78 6.83 204.91 11.47L204.91 11.47L204.91 11.47Q204.83 11.56 204.89 11.61L204.89 11.61L204.89 11.61Q204.89 11.63 204.89 11.70L204.89 11.70L204.89 11.70Q204.88 11.74 204.87 11.78L204.87 11.78L204.87 11.78Q204.85 11.94 205.50 11.83L205.50 11.83L205.50 11.83Q205.99 11.95 206.90 11.92L206.90 11.92L206.90 11.92Q207.50 11.91 207.93 11.65L207.93 11.65L207.93 11.65Q208.11 11.54 208.09 11.44L208.09 11.44L208.09 11.44Q208.06 11.33 207.85 11.33L207.85 11.33ZM218.57 5.20L218.57 5.20Q218.45 6.64 218.18 7.92L218.18 7.92L218.18 7.92Q217.77 9.88 217 10.64L217 10.64L217 10.64Q216.91 10.55 216.84 10.38L216.84 10.38L216.84 10.38Q216.65 9.97 216.67 9.03L216.67 9.03L216.67 9.03Q216.69 7.34 217.27 5.48L217.27 5.48L217.27 5.48Q217.77 3.85 218.46 3.01L218.46 3.01L218.46 3.01Q218.54 3.25 218.59 3.62L218.59 3.62L218.59 3.62Q218.65 4.21 218.57 5.20L218.57 5.20ZM219.50 1.96L219.50 1.96Q219.30 1.79 218.56 2.05L218.56 2.05L218.56 2.05Q218.06 2.24 218.08 2.39L218.08 2.39L218.08 2.39Q217.83 2.48 217.65 2.63L217.65 2.63L217.65 2.63Q216.67 3.40 216.00 5.22L216.00 5.22L216.00 5.22Q215.46 6.70 215.26 8.50L215.26 8.50L215.26 8.50Q215.18 9.28 215.21 9.92L215.21 9.92L215.21 9.92Q215.25 10.77 215.61 11.13L215.61 11.13L215.61 11.13Q215.80 11.31 216.23 11.33L216.23 11.33L216.23 11.33Q216.77 11.36 217.59 11.02L217.59 11.02L217.59 11.02Q218.28 10.74 218.80 9.94L218.80 9.94L218.80 9.94Q219.27 9.21 219.58 7.85L219.58 7.85L219.58 7.85Q219.80 6.94 219.92 5.84L219.92 5.84L219.92 5.84Q220.08 4.44 220.08 3.78L220.08 3.78L220.08 3.78Q220.07 2.45 219.50 1.96L219.50 1.96ZM232.84 2.63L232.84 2.63Q232.54 1.84 231.83 1.42L231.83 1.42L231.83 1.42Q231.18 1.03 230.29 1.02L230.29 1.02L230.29 1.02Q229.28 1.00 228.02 1.39L228.02 1.39L228.02 1.39Q227.29 1.61 227.34 1.80L227.34 1.80L227.34 1.80Q227.41 2.04 228.14 1.83L228.14 1.83L228.14 1.83Q228.33 1.76 228.52 1.72L228.52 1.72L228.52 1.72Q228.53 1.72 228.57 1.70L228.57 1.70L228.57 1.70Q228.63 1.69 228.64 1.69L228.64 1.69L228.64 1.69Q228.70 1.67 228.77 1.66L228.77 1.66L228.77 1.66Q228.83 1.65 228.94 1.63L228.94 1.63L228.94 1.63Q228.95 1.63 229.04 1.62L229.04 1.62L229.04 1.62Q229.11 1.61 229.24 1.61L229.24 1.61L229.24 1.61Q229.25 1.61 229.34 1.61L229.34 1.61L229.34 1.61Q230.06 1.61 230.62 2.00L230.62 2.00L230.62 2.00Q231.23 2.43 231.46 3.27L231.46 3.27L231.46 3.27Q231.65 3.98 231.53 4.81L231.53 4.81L231.53 4.81Q231.29 6.56 230.10 7.40L230.10 7.40L230.10 7.40Q230.06 7.42 230.00 7.46L230.00 7.46L230.00 7.46Q230.01 7.46 229.99 7.46L229.99 7.46L229.99 7.46Q229.97 7.47 229.95 7.48L229.95 7.48L229.95 7.48Q229.90 7.48 229.90 7.49L229.90 7.49L229.90 7.49Q229.80 7.49 229.71 7.47L229.71 7.47L229.71 7.47Q229.04 7.36 228.96 6.66L228.96 6.66L228.96 6.66Q228.96 6.60 228.86 6.58L228.86 6.58L228.86 6.58Q228.87 6.55 228.88 6.49L228.88 6.49L228.88 6.49Q228.89 6.44 228.89 6.42L228.89 6.42L228.89 6.42Q229.43 3.25 229.76 2.24L229.76 2.24L229.76 2.24Q229.84 1.98 229.17 2.10L229.17 2.10L229.17 2.10Q228.87 2.15 228.61 2.27L228.61 2.27L228.61 2.27Q228.35 2.40 228.31 2.50L228.31 2.50L228.31 2.50Q227.99 3.51 227.43 6.77L227.43 6.77L227.43 6.77Q227.20 8.13 226.97 8.89L226.97 8.89L226.97 8.89Q226.53 10.44 226.49 10.94L226.49 10.94L226.49 10.94Q226.48 11.01 226.71 11.02L226.71 11.02L226.71 11.02Q226.92 11.03 227.20 10.98L227.20 10.98L227.20 10.98Q227.92 10.84 227.95 10.55L227.95 10.55L227.95 10.55Q227.99 10.13 228.44 8.54L228.44 8.54L228.44 8.54Q228.51 8.31 228.58 8.03L228.58 8.03L228.58 8.03Q229.22 8.13 230.06 7.92L230.06 7.92L230.06 7.92Q231.77 7.52 232.61 5.75L232.61 5.75L232.61 5.75Q233.39 4.09 232.84 2.63L232.84 2.63ZM244.03 1.42L244.03 1.42Q243.32 1.19 242.14 1.57L242.14 1.57L242.14 1.57Q240.63 2.06 240.06 3.77L240.06 3.77L240.06 3.77Q239.72 4.83 239.89 6.11L239.89 6.11L239.89 6.11Q239.98 6.76 240.25 7.16L240.25 7.16L240.25 7.16Q239.83 7.38 239.54 7.70L239.54 7.70L239.54 7.70Q238.54 8.80 238.65 10.01L238.65 10.01L238.65 10.01Q238.72 10.70 239.20 11.11L239.20 11.11L239.20 11.11Q239.59 11.44 240.42 11.42L240.42 11.42L240.42 11.42Q241.25 11.39 241.96 10.95L241.96 10.95L241.96 10.95Q242.71 10.49 243.01 9.76L243.01 9.76L243.01 9.76Q243.07 9.61 242.79 9.60L242.79 9.60L242.79 9.60Q242.62 9.59 242.43 9.63L242.43 9.63L242.43 9.63Q241.68 9.76 241.58 10.02L241.58 10.02L241.58 10.02Q241.38 10.51 241.03 10.80L241.03 10.80L241.03 10.80Q241.01 10.81 241.00 10.82L241.00 10.82L241.00 10.82Q240.95 10.81 240.95 10.81L240.95 10.81L240.95 10.81Q240.88 10.79 240.80 10.75L240.80 10.75L240.80 10.75Q240.63 10.68 240.47 10.52L240.47 10.52L240.47 10.52Q240.19 10.23 240.11 9.63L240.11 9.63L240.11 9.63Q240.02 8.83 240.65 7.86L240.65 7.86L240.65 7.86Q240.73 7.74 240.83 7.62L240.83 7.62L240.83 7.62Q241.04 7.70 241.32 7.72L241.32 7.72L241.32 7.72Q241.72 7.74 242.21 7.51L242.21 7.51L242.21 7.51Q242.63 7.32 242.48 7.18L242.48 7.18L242.48 7.18Q242.19 6.90 241.77 6.84L241.77 6.84L241.77 6.84Q241.73 6.79 241.69 6.75L241.69 6.75L241.69 6.75Q241.49 6.45 241.38 5.89L241.38 5.89L241.38 5.89Q241.19 4.89 241.37 4.00L241.37 4.00L241.37 4.00Q241.64 2.70 242.40 2.04L242.40 2.04L242.40 2.04Q242.46 2.00 242.55 1.93L242.55 1.93L242.55 1.93Q242.56 1.93 242.56 1.93L242.56 1.93L242.56 1.93Q242.69 1.94 242.67 1.93L242.67 1.93L242.67 1.93Q243.25 2.02 243.13 2.62L243.13 2.62L243.13 2.62Q243.09 2.86 243.71 2.75L243.71 2.75L243.71 2.75Q244.02 2.69 244.28 2.58L244.28 2.58L244.28 2.58Q244.56 2.45 244.58 2.36L244.58 2.36L244.58 2.36Q244.71 1.63 244.03 1.42L244.03 1.42ZM254.28 5.31L254.28 5.31Q254.13 6.24 253.24 7.18L253.24 7.18L253.24 7.18Q253.05 7.38 252.81 7.58L252.81 7.58L252.81 7.58Q252.75 7.63 252.68 7.68L252.68 7.68L252.68 7.68Q252.46 7.59 252.21 7.58L252.21 7.58L252.21 7.58Q252.77 4.74 252.92 2.66L252.92 2.66L252.92 2.66Q253.18 2.80 253.42 2.99L253.42 2.99L253.42 2.99Q253.93 3.39 254.17 4.03L254.17 4.03L254.17 4.03Q254.39 4.65 254.28 5.31L254.28 5.31ZM251.31 2.40L251.31 2.40Q251.31 2.40 251.32 2.39L251.32 2.39L251.32 2.39Q251.32 2.40 251.31 2.40L251.31 2.40ZM256.25 11.42L256.25 11.42Q255.51 10.88 253.98 8.99L253.98 8.99L253.98 8.99Q253.31 8.17 253.20 8.05L253.20 8.05L253.20 8.05Q253.65 7.84 254.08 7.50L254.08 7.50L254.08 7.50Q255.29 6.56 255.64 5.41L255.64 5.41L255.64 5.41Q255.89 4.60 255.68 3.84L255.68 3.84L255.68 3.84Q255.47 3.07 254.85 2.53L254.85 2.53L254.85 2.53Q253.61 1.46 251.54 1.88L251.54 1.88L251.54 1.88Q251.41 1.91 251.21 1.96L251.21 1.96L251.21 1.96Q250.47 2.14 250.53 2.37L250.53 2.37L250.53 2.37Q250.59 2.58 251.30 2.40L251.30 2.40L251.30 2.40Q251.37 2.39 251.42 2.38L251.42 2.38L251.42 2.38Q251.46 2.37 251.49 2.37L251.49 2.37L251.49 2.37Q251.38 5.11 250.14 10.79L250.14 10.79L250.14 10.79Q250.09 11.04 250.72 10.92L250.72 10.92L250.72 10.92Q251.03 10.87 251.28 10.75L251.28 10.75L251.28 10.75Q251.56 10.62 251.58 10.53L251.58 10.53L251.58 10.53Q251.88 9.17 251.97 8.72L251.97 8.72L251.97 8.72Q251.98 8.72 251.98 8.72L251.98 8.72L251.98 8.72Q251.99 8.72 251.99 8.72L251.99 8.72L251.99 8.72Q252.10 8.85 252.78 9.70L252.78 9.70L252.78 9.70Q254.10 11.34 254.86 11.92L254.86 11.92L254.86 11.92Q255.09 12.09 255.81 11.83L255.81 11.83L255.81 11.83Q255.99 11.76 256.14 11.67L256.14 11.67L256.14 11.67Q256.38 11.52 256.25 11.42L256.25 11.42Z"></path></g></svg>